<?xml version="1.0" encoding="UTF-8" standalone="no"?>
<svg
   version="1.1"
   width="490"
   height="490"
   id="svg865"
   viewBox="0 0 490 490"
   sodipodi:docname="logo.svg"
   inkscape:version="1.1.1 (c3084ef, 2021-09-22)"
   xmlns:inkscape="http://www.inkscape.org/namespaces/inkscape"
   xmlns:sodipodi="http://sodipodi.sourceforge.net/DTD/sodipodi-0.dtd"
   xmlns="http://www.w3.org/2000/svg"
   xmlns:svg="http://www.w3.org/2000/svg">
  <defs
     id="defs869" />
  <sodipodi:namedview
     id="namedview867"
     pagecolor="#ffffff"
     bordercolor="#666666"
     borderopacity="1.0"
     inkscape:pageshadow="2"
     inkscape:pageopacity="0.0"
     inkscape:pagecheckerboard="0"
     showgrid="false"
     inkscape:zoom="1.401811"
     inkscape:cx="227.20609"
     inkscape:cy="174.06056"
     inkscape:window-width="1312"
     inkscape:window-height="798"
     inkscape:window-x="0"
     inkscape:window-y="25"
     inkscape:window-maximized="0"
     inkscape:current-layer="layer1" />
  <path
     d="m 325.76109,136.08613 c 25.3192,6.7039 41.3025,16.44 41.3025,27.2468 0,20.1385 -55.4833,36.5635 -123.5104,36.5635 -68.0275,0 -123.5108,-16.425 -123.5108,-36.5635 0,-11.5593 18.2845,-21.894 46.7236,-28.6023 -2.1222,9.6179 17.0116,18.7596 49.5785,22.1842 40.6813,4.2781 87.3132,-1.9415 103.8064,-13.8454 3.192,-2.3039 5.0207,-4.6563 5.6102,-6.9833 z"
     style="fill:none;stroke:#1b1918;stroke-width:2.6391;stroke-linecap:butt;stroke-linejoin:round;stroke-dasharray:none"
     id="path824" />
  <path
     d="m 174.09559,263.50963 a 24.5893,28.6383 0 0 1 24.5893,28.6384 24.5893,28.6383 0 1 1 -24.5893,-28.6384 z"
     style="fill:none;stroke:#1b1918;stroke-width:2.6391;stroke-linecap:butt;stroke-linejoin:round;stroke-dasharray:none"
     id="path826" />
  <path
     d="m 308.21919,262.29103 a 24.5893,28.6383 0 0 1 24.5894,28.6383 24.5893,28.6383 0 1 1 -24.5894,-28.6383 z"
     style="fill:none;stroke:#1b1918;stroke-width:2.6391;stroke-linecap:butt;stroke-linejoin:round;stroke-dasharray:none"
     id="path828" />
  <path
     d="m 308.77809,276.91483 a 12.8535,14.6238 0 0 1 12.8535,14.6238 12.8535,14.6238 0 1 1 -12.8535,-14.6238 z"
     style="fill:none;stroke:#1b1918;stroke-width:2.6391;stroke-linecap:butt;stroke-linejoin:round;stroke-dasharray:none"
     id="path830" />
  <path
     d="m 243.95169,261.07243 c 6.4638,0 11.7357,29.5617 11.7357,65.8071 0,36.2456 -5.2719,65.8073 -11.7357,65.8073 -6.4639,0 -11.7358,-29.5617 -11.7358,-65.8073 0,-36.2454 5.2719,-65.8071 11.7358,-65.8071 z m -69.2973,15.8424 c 7.0796,0 12.8535,6.5695 12.8535,14.6239 0,8.0546 -5.7739,14.6237 -12.8535,14.6237 -7.0796,0 -12.8536,-6.5691 -12.8536,-14.6237 0,-8.0544 5.774,-14.6239 12.8536,-14.6239 z"
     style="fill:none;stroke:#1b1918;stroke-width:2.8517;stroke-linecap:butt;stroke-linejoin:round;stroke-dasharray:none"
     id="path832" />
  <path
     d="m 169.06589,429.24633 a 3.9119,20.1078 0 0 1 3.912,20.1078 3.9119,20.1078 0 1 1 -3.912,-20.1078 z"
     style="fill:none;stroke:#1b1918;stroke-width:2.6391;stroke-linecap:butt;stroke-linejoin:round;stroke-dasharray:none"
     id="path834" />
  <path
     d="m 156.77119,428.02773 a 3.9119,20.1078 0 0 1 3.912,20.1078 3.9119,20.1078 0 1 1 -3.912,-20.1078 z"
     style="fill:none;stroke:#1b1918;stroke-width:2.6391;stroke-linecap:butt;stroke-linejoin:round;stroke-dasharray:none"
     id="path836" />
  <path
     d="m 180.24289,430.46503 a 3.9119,20.1078 0 0 1 3.9119,20.1078 3.9119,20.1078 0 1 1 -3.9119,-20.1078 z"
     style="fill:none;stroke:#1b1918;stroke-width:2.6391;stroke-linecap:butt;stroke-linejoin:round;stroke-dasharray:none"
     id="path838" />
  <path
     d="m 334.48509,426.80903 a 3.9119,20.1078 0 0 1 3.912,20.1078 3.9119,20.1078 0 1 1 -3.912,-20.1078 z"
     style="fill:none;stroke:#1b1918;stroke-width:2.6391;stroke-linecap:butt;stroke-linejoin:round;stroke-dasharray:none"
     id="path840" />
  <path
     d="m 322.19039,426.80903 a 3.9119,20.1078 0 0 1 3.912,20.1078 3.9119,20.1078 0 1 1 -3.912,-20.1078 z"
     style="fill:none;stroke:#1b1918;stroke-width:2.6391;stroke-linecap:butt;stroke-linejoin:round;stroke-dasharray:none"
     id="path842" />
  <path
     d="m 309.89579,429.24633 a 3.9119,20.1078 0 0 1 3.9119,20.1078 3.9119,20.1078 0 1 1 -3.9119,-20.1078 z"
     style="fill:none;stroke:#1b1918;stroke-width:2.6391;stroke-linecap:butt;stroke-linejoin:round;stroke-dasharray:none"
     id="path844" />
  <path
     d="m 317.76809,192.36023 c 39.8343,31.1927 66.4685,86.9685 66.4685,150.367 0,49.6284 -16.3243,94.5816 -42.5204,126.7346 h -194.4136 c -26.1961,-32.153 -42.5204,-77.1062 -42.5204,-126.7346 0,-63.3974 26.6335,-119.1727 66.4669,-150.3656 20.519,4.4951 45.8689,7.1596 73.2565,7.1596 27.3901,0 52.7423,-2.665 73.2625,-7.161 z"
     style="fill:none;stroke:#1b1918;stroke-width:2.6391;stroke-linecap:butt;stroke-linejoin:round;stroke-dasharray:none"
     id="path846" />
  <g
     id="Layer1000"
     transform="translate(-62.84941,-299.01477)">
    <path
       d="m 94.4478,447.3415 v -2.2191 -2.6632 l 3.3328,-6.6584 v -3.9953 l 0.5542,-5.3274 v -5.7703 -7.1025 -7.5465 -8.8776 l 0.5554,-9.7667 v -10.6537 -7.1025 -6.6584 -6.2145 -5.3273 -4.8823 -3.9953 -3.5513 -2.6631 -2.2202 l -0.5554,-2.2191 v -1.3321 l -0.5542,-0.8881 -0.5555,-0.443 -1.1109,-0.8881 -1.6664,-0.444 -2.2205,-0.444 v -7.9906 l 4.4424,0.444 3.8869,0.4441 h 6.1088 l 10.5498,-0.4441 9.9956,-0.444 h 3.3315 l 2.7773,0.444 v 0.4441 0.444 l -0.5555,4.8834 v 5.3263 l -0.5554,6.2144 -0.5555,6.6584 h -1.6664 l -1.665,0.4441 0.5554,-5.3264 v -3.5512 -2.6632 l -0.5554,-0.888 -0.5555,-0.4441 -1.1109,-0.888 -1.6664,-0.4441 -2.2205,-0.444 -5.5533,-0.443 -3.3315,0.443 -3.8869,0.444 -0.5555,12.8739 v 11.0978 l -0.5554,10.2097 v 8.4335 l 3.8869,-0.444 3.3315,-0.8871 3.8882,-0.888 1.665,-0.4441 0.5555,-0.444 0.5555,-0.8881 v -1.7751 l 0.5554,-1.3321 v -1.7751 -3.1072 l 0.5555,-3.9953 1.6651,-0.444 h 1.6663 l -0.5554,6.2144 v 4.8834 l -0.5555,3.9952 v 2.6632 8.8776 8.8786 l -1.665,0.444 -1.6664,0.4441 v -4.8834 -3.5512 -2.2191 -1.3322 l -0.5555,-0.444 -0.5555,-0.8881 h -1.1109 -1.665 l -2.7773,0.4441 -2.776,0.888 -2.2206,0.8881 -2.2218,0.8881 v 9.3216 l -0.5555,11.5418 v 10.2097 8.4346 7.1025 l 6.6642,-2.6643 5.552,-3.1072 5.5533,-3.5512 1.1109,-7.9906 1.111,-9.3216 1.665,-0.444 1.111,-0.444 -0.5555,13.7609 -1.1109,13.3179 -3.3315,1.7751 -2.776,1.7762 -1.1109,0.444 -1.6664,0.887 -4.9965,2.2202 -4.9978,2.2191 -4.4424,2.2192 -5.5533,3.5512 z"
       style="fill:#000000;fill-rule:evenodd;stroke:#000000;stroke-width:0.7191;stroke-linecap:butt;stroke-linejoin:miter;stroke-dasharray:none"
       id="path848" />
    <path
       d="m 134.9847,426.9222 0.5554,-3.1072 v -3.5513 l 3.3315,-2.2191 1.6664,-0.8881 v -0.444 l 0.5554,-0.8881 0.5555,-1.7751 v -1.3321 -1.7751 l 0.5554,-3.5512 0.5542,-4.8834 v -5.7703 l 0.5555,-7.5466 0.5554,-13.7609 0.5555,-14.2049 0.5554,-6.2155 v -6.2144 -5.3263 -4.8834 l 0.5555,-3.9953 v -3.1072 -1.7761 l -0.5555,-1.3311 v -0.888 l -0.5554,-0.8881 -1.6664,-0.4441 h -1.6651 l -2.2218,-0.4429 0.5554,-3.1083 v -3.1072 l 6.1088,0.444 h 6.1074 6.1088 l 6.1088,-0.444 v 2.6642 l -0.5555,3.1072 -2.2218,0.4441 -1.6651,0.4429 -1.6664,0.8881 -0.5555,1.3321 -0.5554,1.3311 v 1.7761 1.7751 2.2202 l -0.5555,3.1072 v 4.4393 l -0.5541,4.8823 v 5.7714 l -0.5555,6.2144 -0.5554,7.5466 h 0.5554 v 0 l 2.2205,-3.9953 2.7773,-4.4393 3.3315,-5.7704 3.8869,-6.6584 3.8869,-6.2155 3.3315,-5.7704 2.7773,-5.3263 2.2205,-4.4393 v -2.6632 -0.8881 -1.3321 l 0.5555,-0.444 v -0.444 l 3.8869,0.444 h 3.3328 3.3314 l 3.3315,-0.444 v 5.3273 l -1.111,0.4441 h -1.1096 l -2.2218,0.444 -0.5555,0.4441 h -0.5554 l -2.2206,1.7751 -2.2218,3.1072 -2.2205,3.1072 -2.7773,3.5512 -2.776,4.4393 -2.776,4.8834 -3.8883,6.2144 -3.3314,5.7703 1.1109,3.5513 1.6664,3.5512 5.552,12.8739 7.2197,13.7609 1.665,3.5513 1.6664,2.6631 1.1109,1.3322 0.5555,0.888 h 1.1096 2.7773 l -0.5555,2.6632 v 2.2191 l -1.1109,0.4441 -1.1109,0.444 -3.3314,0.8881 -3.3315,0.887 -2.776,0.8881 -3.8882,1.7761 -1.6651,-3.5512 -1.6664,-3.9953 -2.776,-5.3274 -2.7773,-6.2144 -4.4423,-9.7656 -4.4424,-9.3227 -0.5555,-0.444 -0.5541,-0.443 v -0.4441 h -0.5555 v 0.4441 l -0.5554,0.887 v 0.444 1.3321 1.7751 l -0.5555,2.2202 v 10.6537 l -0.5555,10.6538 -0.5554,4.4393 v 3.1072 2.2191 0.8881 l 0.5554,0.8881 v 0.4429 h 1.6664 l 1.6651,-0.4429 2.2218,-0.4441 -0.5554,3.1072 v 2.6632 l -6.1088,2.2191 -6.1074,2.2202 -1.6664,0.8881 -2.2206,1.331 -3.3327,1.3321 z"
       style="fill:#000000;fill-rule:evenodd;stroke:#000000;stroke-width:0.7191;stroke-linecap:butt;stroke-linejoin:miter;stroke-dasharray:none"
       id="path850" />
    <path
       d="m 223.2767,398.0682 -6.6629,0.8881 -5.5533,-0.4441 -4.9978,-2.2191 -3.887,-3.9953 -2.7759,-5.3273 -1.6664,-6.6585 -1.1109,-8.4335 0.5554,-9.3227 0.5555,-6.6584 1.1109,-6.6585 1.6664,-5.7703 1.665,-5.3274 2.2219,-4.4393 2.776,-4.4383 2.776,-3.1083 3.3327,-3.1072 3.3315,-2.2191 4.4424,-1.3321 3.8869,-0.887 4.9978,-0.4441 4.4424,0.4441 4.4424,0.443 3.3314,1.3321 3.3315,1.7761 5.5533,5.3264 1.6664,3.1072 1.665,3.5512 2.2219,8.8786 v 4.4383 5.3274 l -0.5555,5.7703 -0.5555,5.7715 -3.3314,9.7656 -5.5533,8.4346 -2.776,3.9953 -3.3314,3.1072 -3.8883,2.6631 -3.8869,2.2192 z m 2.2218,-6.6584 3.887,-1.3311 3.3314,-1.7761 2.7773,-3.1072 2.776,-3.9953 2.776,-4.8834 1.6664,-5.3263 1.1109,-6.6584 0.5555,-7.5466 0.5554,-7.9905 -0.5554,-6.6585 -1.6664,-6.2144 -1.6664,-4.8833 -2.2205,-3.1072 -2.776,-2.2191 -3.3328,-1.3322 -4.4424,-0.444 -3.8869,0.444 -3.3314,1.7751 -3.3315,2.6643 -2.7773,3.5512 -2.2205,4.8823 -1.6664,6.2155 -1.6651,7.1024 -0.5554,7.9895 v 6.2155 5.3263 l 0.5554,4.4393 0.5542,4.4394 1.1109,3.9942 1.1109,3.1082 1.6664,2.2192 1.6651,1.7761 1.6664,0.887 2.7759,0.8881 h 2.2219 z"
       style="fill:#000000;fill-rule:evenodd;stroke:#000000;stroke-width:0.7191;stroke-linecap:butt;stroke-linejoin:miter;stroke-dasharray:none"
       id="path852" />
    <path
       d="m 280.4734,369.2143 -0.5554,-0.4441 v -0.443 l 1.665,-4.8833 1.111,-5.3274 h 6.6642 l 4.9978,-0.443 h 5.552 l 5.5533,-0.444 0.5554,0.444 v 0.443 l -1.1109,4.8834 -1.665,5.3273 h -6.1088 -5.5533 l -5.5533,0.443 z"
       style="fill:#000000;fill-rule:evenodd;stroke:#000000;stroke-width:0.7191;stroke-linecap:butt;stroke-linejoin:miter;stroke-dasharray:none"
       id="path854" />
    <path
       d="m 330.4492,387.8585 v -3.9952 l 3.8882,-0.4441 h 1.665 l 0.5555,-0.444 0.5555,-1.3311 v -2.6631 -3.9953 -5.3274 -6.6584 -7.9906 l -0.5555,-3.9953 v -4.4382 -5.3274 l -0.5555,-6.2144 v -3.9953 -2.6632 -2.2202 l -0.5554,-0.887 v -0.444 l -0.5555,-0.8881 -0.5541,-0.444 h -1.6664 l -3.8869,-0.4441 v -3.9952 h 3.8869 3.3314 4.9979 6.6642 6.1074 v 3.9952 l -2.2205,0.4441 -1.6664,0.444 h -1.1109 l -0.5541,0.444 -0.5555,0.8881 -0.5555,2.2192 v 3.1072 l 0.5555,3.9952 v 5.7704 6.6595 l 0.5555,8.8776 v 7.5465 l 0.5541,6.2144 v 4.4393 l 0.5555,3.5512 v 2.6632 2.2202 l 0.5554,0.887 0.5555,0.8881 0.5555,0.444 1.6663,0.4441 1.6651,0.444 2.2219,0.444 v 2.2192 l 0.5554,1.7761 h -2.2218 l -2.776,-0.444 -4.4424,-0.4441 -3.8882,-0.888 h -6.6629 z"
       style="fill:#000000;fill-rule:evenodd;stroke:#000000;stroke-width:0.7191;stroke-linecap:butt;stroke-linejoin:miter;stroke-dasharray:none"
       id="path856" />
    <path
       d="m 362.6567,390.9657 -0.5555,-2.2191 v -2.2191 l 2.2219,0.443 h 1.6664 l 1.665,-0.443 0.5555,-0.4441 0.5555,-0.444 v -0.8881 -2.2191 -2.2202 -3.5512 l -0.5555,-5.7704 v -5.3274 -4.4382 -3.5513 l -0.5555,-10.6537 -1.1109,-11.0978 v -3.9952 -3.1072 l -0.5541,-1.7762 v -1.331 l -0.5555,-0.4441 -0.5555,-0.8881 -1.6663,-0.444 -1.6651,-0.444 -2.2219,-0.4441 v -1.7751 l -0.5554,-2.2201 h 5.5533 1.6664 1.665 3.3315 3.8882 l 4.9965,8.4346 5.5533,8.4345 5.5533,9.3217 6.1088,9.7656 3.8869,6.6584 3.8869,6.2155 3.3315,5.7704 3.3314,5.3274 -0.5554,-11.5418 -1.1097,-11.5418 -0.5554,-6.2144 v -6.2144 l -1.1109,-10.6538 -0.5555,-2.6642 v -1.7751 l -0.5555,-1.7761 v -0.887 l -0.5554,-0.4441 -0.5542,-0.444 -1.6664,-0.4441 -3.3314,-0.444 -0.5555,-2.2191 v -2.6642 l 4.4424,0.444 h 3.8869 4.9979 l 4.9978,-0.444 v 2.6642 l 0.5555,2.6631 h -2.2219 l -1.6664,0.4441 -1.665,0.444 v 0.4441 h -0.5555 v 0.887 l -0.5555,0.8881 v 0.888 2.2192 2.6631 l 0.5555,3.1083 1.6664,23.9706 0.5541,11.9848 0.5555,11.9858 1.1109,9.7656 0.5555,9.3227 v 0.444 l -0.5555,0.4441 -3.8869,-2.2202 -2.776,-1.3311 -5.5533,-9.7667 -6.6642,-10.6537 -6.6629,-11.5418 -7.7738,-12.4288 -3.3328,-5.7704 -3.3315,-5.7714 -3.3314,-4.4393 -2.2219,-4.4383 0.5555,10.2097 0.5555,10.2097 0.5554,9.3216 v 5.3274 l 0.5555,5.7704 0.5554,3.9952 v 2.6632 2.2202 l 0.5555,0.8881 0.5542,0.887 v 0.444 l 0.5554,0.4441 1.6664,0.444 3.8869,0.8881 v 2.2191 2.2191 l -2.776,-0.4429 -2.7773,-0.8881 -3.8869,-0.4441 -1.1109,-0.444 h -2.2205 l -2.776,-0.444 z"
       style="fill:#000000;fill-rule:evenodd;stroke:#000000;stroke-width:0.7191;stroke-linecap:butt;stroke-linejoin:miter;stroke-dasharray:none"
       id="path858" />
    <path
       d="m 429.2923,406.0588 v -2.2192 -2.6642 l 3.8882,0.8881 h 1.1096 l 0.5555,-0.444 v -1.3311 -1.3321 -1.7751 -6.2155 l -0.5555,-7.1024 v -7.1025 l -0.5554,-7.9906 -0.5542,-12.4288 -1.1109,-13.3169 -0.5554,-6.2154 -0.5555,-4.8823 -0.5555,-3.1072 v -1.7762 l -0.5554,-0.444 -0.5555,-0.887 -0.5541,-0.4441 h -1.111 l -3.3327,-0.8881 -0.5542,-2.6631 v -2.6642 l 6.1075,0.444 h 5.5533 7.2183 7.2197 4.4424 3.8869 4.9978 v 0.8881 0.888 4.4394 5.3263 11.0977 h -1.1109 -1.6664 l -0.5541,-3.9952 v -3.9953 l -0.5555,-2.6632 -0.5554,-1.7761 -0.5555,-0.887 -2.2218,-0.8881 -2.776,-0.444 -3.8869,-0.4441 h -3.3315 l -3.8869,0.4441 0.5541,5.3273 v 4.4383 3.5512 2.6643 l 0.5555,7.1024 0.5555,7.1025 v 2.6632 l 2.7773,0.8881 2.776,0.4429 2.7759,0.4441 h 1.6664 1.6664 0.5542 l 0.5554,-0.4441 0.5555,-0.4429 v -0.8881 -1.7762 -2.6631 -3.1072 h 1.6664 l 1.665,0.444 v 6.2144 l 0.5555,6.2144 v 3.1072 l 0.5555,3.9953 v 5.3274 l 0.5554,5.7704 -1.6664,-0.4441 -1.665,-0.444 -0.5555,-3.9942 v -3.1083 l -0.5555,-2.2191 v -1.3321 l -0.5554,-0.443 -0.5555,-0.8881 -1.1096,-0.444 -1.6664,-0.8881 -4.4423,-0.8881 -2.2219,-0.443 -2.776,-0.444 1.6664,25.3027 0.5555,3.9953 v 3.5512 2.2192 l 0.5541,1.3321 0.5555,0.887 0.5554,0.8881 0.5555,0.444 1.1109,0.444 1.6651,0.8881 2.7773,1.3311 v 3.1072 2.6642 l -5.5533,-2.6642 -5.5533,-1.7751 -2.2205,-0.8881 -3.3315,-1.3321 -3.8882,-0.887 z"
       style="fill:#000000;fill-rule:evenodd;stroke:#000000;stroke-width:0.7191;stroke-linecap:butt;stroke-linejoin:miter;stroke-dasharray:none"
       id="path860" />
    <path
       d="m 498.7052,435.8008 -6.1087,-3.9953 -5.5533,-4.8833 -4.4424,-6.6585 -4.4424,-7.9905 -3.3314,-8.8776 -2.776,-9.7656 -1.6664,-10.6548 -1.1109,-11.5408 v -8.4345 l 0.5554,-7.1025 0.5555,-6.6585 1.1109,-6.2144 1.6664,-5.7714 2.2205,-4.8823 2.776,-3.9953 2.7773,-3.5512 3.3315,-3.1072 3.8869,-1.7762 3.8869,-1.331 4.9979,-0.4441 4.4423,0.4441 4.4424,1.331 3.3315,2.2202 3.3327,3.1072 3.3315,3.9953 2.2218,4.8823 2.2205,5.7714 1.6664,6.6585 1.6651,7.5465 1.1109,7.9895 0.5555,8.4346 v 9.7656 10.2097 l -0.5555,9.3227 -1.1109,8.4335 -1.6651,7.5465 -1.6664,6.6585 -2.2205,5.3273 -2.2218,3.9953 -2.776,3.1072 -3.3328,2.2192 -3.3314,0.444 -3.8869,-0.444 z m 1.111,-7.9906 3.3314,0.4441 2.776,-0.8881 2.7773,-2.6632 1.1096,-1.7761 1.1109,-2.6632 0.5555,-3.1072 1.1109,-3.5512 0.5555,-3.9953 0.5554,-4.4393 0.5542,-5.3263 v -5.3274 -5.7704 -6.6584 l -0.5542,-12.8739 -0.5554,-11.5408 -1.6664,-10.2107 -2.2218,-8.4336 -2.776,-5.3273 -2.776,-3.5513 -3.3328,-2.6631 -4.4424,-0.8881 -3.8869,0.8881 -3.3314,1.7761 -2.776,3.5512 -2.2219,4.8823 -1.665,6.2144 -1.111,7.5466 -0.5554,8.8786 v 10.6537 l 0.5554,7.9906 0.5555,7.1024 1.1096,7.1025 1.6664,6.2144 1.1109,5.7704 1.6651,4.8833 1.6664,4.4394 1.6663,3.5512 2.2206,3.5512 2.2218,2.6632 2.2206,1.7751 z"
       style="fill:#000000;fill-rule:evenodd;stroke:#000000;stroke-width:0.7191;stroke-linecap:butt;stroke-linejoin:miter;stroke-dasharray:none"
       id="path862" />
  </g>
  <g
     inkscape:groupmode="layer"
     id="layer1"
     inkscape:label="gradient">
    <path
       style="fill:#624900;fill-opacity:1;stroke:#624900;stroke-width:1.46392;stroke-opacity:1"
       d="m 33.679524,142.85296 c 2.275057,-6.61761 4.621232,-103.053992 2.683062,-110.283637 -0.477764,-1.782123 -2.113099,-3.635194 -3.634078,-4.117934 -1.520979,-0.48274 -2.765417,-2.148839 -2.765417,-3.702443 0,-2.614027 1.253806,-2.842904 16.808563,-3.068336 9.24471,-0.133981 17.959584,-0.298412 19.366388,-0.365403 3.107202,-0.147962 4.09154,6.734088 2.381165,16.64803 l -1.141406,6.615996 -0.802582,-6.492092 C 65.842356,32.158994 65.336497,31.482706 60.751815,30.301763 57.990363,29.590455 53.55071,29.417499 50.88592,29.917417 l -4.845073,0.908941 v 21.857983 c 0,23.880646 -0.40934,22.970135 9.135088,20.319515 4.868126,-1.351945 5.483556,-2.045687 5.503435,-6.203709 0.01231,-2.574849 0.672492,-5.668134 1.467071,-6.873965 0.968449,-1.469694 1.135459,3.348489 0.506632,14.616141 -0.951672,17.052548 -1.996084,23.198641 -1.996084,11.746429 v -6.280145 l -6.649464,0.749491 c -3.657205,0.41222 -7.031437,1.131465 -7.498292,1.59832 -0.466857,0.466856 -1.185387,11.396474 -1.596733,24.288032 -0.857111,26.86181 -1.075405,26.48986 11.423134,19.46409 7.175132,-4.03334 8.632637,-6.42581 8.708621,-14.29505 0.02328,-2.41167 0.63571,-5.32242 1.360939,-6.46834 0.810711,-1.28099 1.014198,2.65985 0.528301,10.2313 -0.434665,6.77313 -1.225065,12.79772 -1.756443,13.38798 -0.531377,0.59025 -8.088552,4.69212 -16.793723,9.11526 -14.068608,7.14834 -15.702692,7.67881 -14.703805,4.77327 z"
       id="path2279" />
    <path
       style="fill:#624900;fill-opacity:1;stroke:#624900;stroke-width:0.214298;stroke-opacity:1"
       d="m 63.759368,65.472048 c -0.0011,-5.686914 -0.102666,-6.30244 -1.080711,-6.547914 -0.78975,-0.198215 -1.332994,0.417669 -1.940177,2.199609 -0.273586,0.802907 -0.499914,1.237569 -0.502952,0.965914 -0.0055,-0.494362 0.349079,-3.154979 0.538873,-4.043155 0.120853,-0.565556 1.182265,-0.915969 2.779853,-0.917738 l 1.077659,-0.0012 -0.260997,2.728002 c -0.143549,1.500401 -0.274573,4.124097 -0.291165,5.830436 -0.01659,1.706338 -0.09524,3.535704 -0.17478,4.065257 -0.07954,0.529554 -0.145057,-1.396095 -0.145603,-4.279218 z"
       id="path2688" />
    <path
       style="fill:#624900;fill-opacity:1;stroke:#624900;stroke-width:0.214298;stroke-opacity:1"
       d="m 59.588122,87.940713 c 0,-5.293986 -0.04632,-6.193682 -0.331069,-6.43 -0.264434,-0.21946 -0.2752,-0.310204 -0.05349,-0.450844 0.152669,-0.09685 0.339296,-0.177555 0.414728,-0.179357 0.07543,-0.0018 0.175061,2.475996 0.221397,5.506218 0.09051,5.91861 0.187963,6.472318 1.139181,6.472318 1.124946,0 1.333029,-1.345447 2.316338,-14.977266 0.0382,-0.529553 0.08627,2.668126 0.106832,7.105955 l 0.03738,8.068778 -0.909334,0.233398 c -0.500134,0.128369 -1.366676,0.362242 -1.925649,0.519717 l -1.016314,0.28632 z"
       id="path2727" />
    <path
       style="fill:#624900;fill-opacity:1;stroke:#624900;stroke-width:0.214298;stroke-opacity:1"
       d="m 70.0932,26.424176 c -0.312589,-2.353172 -1.092302,-4.347539 -2.049418,-5.242043 -0.556192,-0.519807 -0.685086,-0.538522 -4.567492,-0.663161 -3.900914,-0.125233 -3.871503,-0.127452 1.246894,-0.09411 2.883124,0.01878 5.410538,0.110868 5.616475,0.20464 0.260691,0.118705 0.370841,0.407273 0.362612,0.949958 -0.01267,0.835604 -0.56161,5.202011 -0.609071,4.84472 z"
       id="path2766" />
    <path
       style="fill:#624900;fill-opacity:1;stroke:#624900;stroke-width:0.214298;stroke-opacity:1"
       d="m 29.208822,21.956889 -0.0032,-1.685795 1.872159,0.150443 c 1.029687,0.08274 2.834982,0.275172 4.011767,0.42762 2.056769,0.266445 2.088173,0.278257 0.811094,0.305076 -3.397319,0.07135 -5.843128,0.817268 -6.420354,1.958078 -0.237517,0.469421 -0.26872,0.336638 -0.271512,-1.155422 z"
       id="path2805" />
    <path
       style="fill:#624900;fill-opacity:1;stroke:#624900;stroke-width:0.214298;stroke-opacity:1"
       d="M 30.596414,28.993531 C 30.478736,28.954276 30.117677,28.86376 29.794061,28.792385 29.22269,28.666367 29.205804,28.620951 29.210367,27.222453 l 0.0047,-1.44016 0.39416,0.867785 c 0.216788,0.477281 0.809698,1.22347 1.317579,1.658197 0.839092,0.718231 0.87594,0.78887 0.403495,0.773521 -0.285959,-0.0093 -0.616207,-0.04901 -0.733886,-0.08826 z"
       id="path2844" />
    <path
       style="fill:#624900;fill-opacity:1;stroke:#624900;stroke-width:0.214298;stroke-opacity:1"
       d="m 65.241034,44.9061 c 0.108327,-0.654208 0.51206,-4.320793 0.579341,-5.261403 0.01506,-0.210575 0.183556,0.820666 0.374431,2.291647 l 0.347046,2.674512 h 0.84816 0.848158 l 0.683272,-3.958277 c 0.375799,-2.177053 0.692175,-3.637859 0.703057,-3.246235 0.02043,0.735165 -0.329522,5.242267 -0.52843,6.805757 l -0.112591,0.885011 -1.327793,0.117121 c -0.730287,0.06442 -1.599279,0.184152 -1.931095,0.266077 -0.586871,0.144899 -0.600041,0.12926 -0.483556,-0.57421 z"
       id="path2883" />
    <path
       style="fill:#624900;fill-opacity:1;stroke:#624900;stroke-width:0.214298;stroke-opacity:1"
       d="m 67.917913,109.58224 c -0.09,-4.45216 -0.104551,-4.57585 -0.584133,-4.96384 -0.693011,-0.56068 -1.327184,-0.2707 -1.926151,0.88072 l -0.492341,0.94645 0.117909,-1.04618 c 0.06485,-0.5754 0.117909,-1.26398 0.117909,-1.53017 0,-0.41502 0.236334,-0.56028 1.658198,-1.0192 0.912008,-0.29437 1.66917,-0.52047 1.682582,-0.50246 0.01341,0.018 -0.08948,2.68052 -0.228647,5.91668 l -0.253031,5.88392 z"
       id="path2922" />
    <path
       style="fill:#624900;fill-opacity:1;stroke:#624900;stroke-width:0.214298;stroke-opacity:1"
       d="m 31.356023,145.98748 0.01075,-2.74063 0.941333,-1.81867 c 0.793068,-1.53222 0.942499,-1.71757 0.948736,-1.17678 0.0041,0.35303 -0.132086,1.21957 -0.302574,1.92564 -0.420651,1.74212 -0.400288,2.3263 0.09677,2.77613 0.665622,0.60238 2.144431,0.33208 5.029109,-0.91924 1.398151,-0.60649 2.57712,-1.06768 2.619929,-1.02487 0.133719,0.13372 -5.445409,3.55002 -9.194322,5.63001 -0.08826,0.049 -0.155635,-1.14425 -0.149725,-2.65159 z"
       id="path2961" />
    <path
       style="fill:#624900;fill-opacity:1;stroke:#624900;stroke-width:0.214298;stroke-opacity:1"
       d="m 71.875176,127.91879 c 0.373836,-1.69638 0.550602,-3.2717 0.550602,-4.90687 v -1.86268 l 2.167076,-1.41442 c 1.191891,-0.77793 2.241487,-1.41442 2.332436,-1.41442 0.259455,0 0.970389,-1.31607 1.337166,-2.47534 0.183585,-0.58026 0.387403,-2.16226 0.45293,-3.51557 0.06553,-1.3533 0.265858,-3.42337 0.445182,-4.60016 0.179323,-1.17678 0.415674,-4.88864 0.525224,-8.24858 0.10955,-3.359936 0.255427,-6.344691 0.324173,-6.632789 0.06875,-0.288099 0.416464,-7.648715 0.77271,-16.356925 0.356245,-8.70821 0.733835,-16.65151 0.839089,-17.651777 0.105254,-1.000268 0.200482,-5.718107 0.211618,-10.484087 0.01483,-6.346167 0.103216,-9.238072 0.330244,-10.805027 0.416325,-2.873491 0.415052,-6.521994 -0.0026,-7.521635 -0.176518,-0.422466 -0.320941,-0.982146 -0.320941,-1.243732 0,-0.851906 -0.672478,-1.199336 -2.707664,-1.398894 -1.040873,-0.102061 -2.214335,-0.253664 -2.607693,-0.336896 -0.683429,-0.144607 -0.709595,-0.185604 -0.589088,-0.922973 0.06936,-0.424404 0.186719,-1.929213 0.260797,-3.34402 l 0.134688,-2.572376 3.342873,0.259175 c 4.306362,0.333874 13.946414,0.332825 18.266647,-0.002 l 3.369885,-0.261162 -4e-5,1.397578 c -3e-5,1.140982 -0.51281,4.684476 -0.69932,4.832571 -0.0272,0.02162 -0.819763,0.206274 -1.761191,0.410343 -0.941428,0.204068 -2.15752,0.560575 -2.702425,0.792236 -0.887159,0.377166 -1.049399,0.559405 -1.551833,1.743113 -0.513797,1.210486 -0.561827,1.574398 -0.569797,4.317363 -0.0048,1.647499 -0.105303,3.428724 -0.223373,3.958277 -0.229542,1.029531 -0.485704,5.545485 -0.813289,14.33778 -0.111853,3.00212 -0.256558,5.698028 -0.321567,5.990906 -0.189444,0.853482 -0.831184,9.851389 -0.711171,9.971404 0.05995,0.05995 0.521596,-0.643178 1.025872,-1.562512 0.504278,-0.919337 1.605449,-2.778766 2.44705,-4.132069 0.8416,-1.353303 3.123799,-5.2046 5.071554,-8.558438 1.94775,-3.353838 4.38772,-7.445841 5.42213,-9.09334 2.90039,-4.619396 5.21368,-8.685653 7.90354,-13.892697 l 2.46112,-4.76426 v -2.573645 c 0,-2.026664 0.0682,-2.630256 0.32094,-2.840004 0.17652,-0.146496 0.32094,-0.380551 0.32094,-0.520122 0,-0.194724 0.53514,-0.191017 2.30008,0.01593 2.98879,0.35045 7.55938,0.348349 10.05617,-0.0046 l 1.97914,-0.279792 v 2.847325 c 0,3.33659 0.0874,3.215116 -2.54616,3.54089 -0.89435,0.110633 -1.90565,0.340216 -2.24735,0.510184 -0.34169,0.169968 -0.71346,0.309033 -0.82615,0.309033 -0.58754,0 -2.54754,2.096888 -4.47176,4.784056 -1.19157,1.664035 -2.80772,3.843919 -3.59145,4.844187 -1.40878,1.79801 -4.08058,5.976367 -5.6778,8.879379 -0.45323,0.823749 -1.69722,2.893821 -2.76444,4.60016 -1.06722,1.706338 -2.7753,4.534453 -3.79575,6.284698 l -1.85536,3.182267 0.31914,1.096952 c 0.88312,3.035528 7.71354,18.304076 10.92375,24.418697 1.60633,3.059641 3.74872,7.209013 4.76087,9.220828 1.01214,2.011815 2.40554,4.442946 3.09643,5.402514 l 1.25618,1.744676 h 2.07712 2.07714 l -0.28952,1.23027 c -0.15923,0.67665 -0.29101,1.86994 -0.29285,2.65176 l -0.003,1.42148 -1.33725,0.534 c -0.73549,0.2937 -2.68521,0.88651 -4.33271,1.31735 -4.10627,1.07384 -6.07979,1.73345 -8.37916,2.80058 l -1.96034,0.90978 -0.43177,-0.99292 c -2.2716,-5.22381 -3.18627,-7.21611 -4.5815,-9.97928 -0.89131,-1.765185 -3.20887,-6.723729 -5.15014,-11.018995 -5.223195,-11.55685 -7.530916,-16.290954 -8.208496,-16.839079 -0.899986,-0.728041 -1.135682,-0.348314 -1.138685,1.83452 -0.0014,1.015279 -0.144677,2.375514 -0.318402,3.022746 -0.240628,0.89649 -0.317594,2.552783 -0.323132,6.953731 -0.0074,5.89812 -0.459776,15.577417 -0.844939,18.079697 -0.301429,1.95829 -0.283607,7.97665 0.02563,8.65536 0.310482,0.68143 0.884615,0.70135 3.506851,0.12167 1.053146,-0.23281 2.020072,-0.42537 2.148726,-0.42792 0.164637,-0.003 0.151123,0.42312 -0.04563,1.43961 -0.15375,0.79433 -0.283083,2.17729 -0.287407,3.07325 l -0.0079,1.62902 -6.044397,2.19528 c -6.287539,2.28359 -6.850648,2.52168 -9.14683,3.86741 -0.76491,0.4483 -2.115653,1.10063 -3.00165,1.44963 -1.428083,0.56254 -2.720026,1.23695 -5.085384,2.65462 l -0.705382,0.42278 z"
       id="path3000" />
    <path
       style="fill:#624900;fill-opacity:1;stroke:#624900;stroke-width:0.214298;stroke-opacity:1"
       d="m 149.94529,99.905706 c -1.4085,-0.136351 -2.24946,-0.385108 -4.27921,-1.265791 -2.46436,-1.069255 -2.57487,-1.14689 -4.51357,-3.171027 -1.66543,-1.73882 -2.2179,-2.507015 -3.41058,-4.742256 -1.27276,-2.385333 -1.5177,-3.052617 -2.31688,-6.311848 -0.52615,-2.145752 -1.09758,-5.268007 -1.38953,-7.592292 -0.47622,-3.79123 -0.48522,-4.134821 -0.22703,-8.665419 0.60395,-10.597866 1.30729,-15.836197 2.81852,-20.991692 2.41059,-8.223574 3.21238,-10.15048 6.26939,-15.066805 1.22692,-1.973142 2.07792,-3.009186 4.32771,-5.268698 3.39913,-3.413814 5.63695,-4.991675 8.18254,-5.769413 3.50211,-1.069979 6.17532,-1.639336 8.91253,-1.89825 2.51595,-0.237985 3.21387,-0.217856 7.38165,0.212906 4.07558,0.421232 4.78654,0.553018 6.20499,1.150183 3.3654,1.416835 4.65195,2.274914 7.64941,5.101871 l 2.88686,2.72265 1.61357,3.209414 c 1.48286,2.949445 1.70572,3.573371 2.75121,7.702594 l 1.13765,4.493179 0.006,5.306553 c 0.004,4.121993 -0.11546,6.533952 -0.53649,10.805027 l -0.54202,5.498475 -1.62528,4.814121 -1.62528,4.814121 -4.12008,6.206597 c -4.58015,6.899654 -5.71173,8.186796 -9.51803,10.826524 -3.61277,2.50551 -5.87499,3.656603 -10.80503,5.497961 -4.32144,1.614051 -4.96028,1.792982 -7.79654,2.183718 -3.22979,0.444951 -4.52528,0.479381 -7.43601,0.197597 z m 11.1673,-7.570809 c 2.29686,-0.36083 4.99151,-1.273645 7.09899,-2.404792 1.74556,-0.936893 3.30696,-2.560818 5.55608,-5.778565 5.17852,-7.40877 6.41901,-11.743409 7.48882,-26.168125 0.5206,-7.019524 0.54353,-7.867979 0.30236,-11.186687 -0.22139,-3.046568 -0.40164,-4.117165 -1.18878,-7.060711 -1.88408,-7.045669 -3.1346,-9.515492 -5.954,-11.75936 -1.92474,-1.531837 -3.91366,-2.280784 -6.82688,-2.57073 -3.43238,-0.341616 -5.69816,-0.01313 -7.75998,1.125021 -5.42275,2.993423 -8.54164,7.398516 -10.56034,14.915304 -2.60876,9.713929 -3.00438,12.803499 -3.01856,23.573315 -0.007,5.261937 0.0653,6.662603 0.54074,10.484086 0.78589,6.317069 2.01133,10.560584 3.65255,12.648254 2.16657,2.755933 2.53537,3.037287 5.20714,3.972478 1.64462,0.575664 2.84338,0.621867 5.46186,0.210512 z"
       id="path3039" />
    <path
       style="fill:#624900;fill-opacity:1;stroke:#624900;stroke-width:0.214298;stroke-opacity:1"
       d="m 217.10617,70.136396 c -0.39087,-0.390863 -0.32536,-0.779062 0.57546,-3.41029 0.45773,-1.336964 0.94061,-2.960397 1.07308,-3.607629 0.13247,-0.647232 0.39114,-1.864356 0.57482,-2.704721 l 0.33397,-1.527935 4.63735,-0.119492 c 7.37034,-0.189913 15.65823,-0.525163 16.96,-0.686043 1.36785,-0.169044 2.11972,0.108318 2.11972,0.781956 0,0.778405 -1.07487,5.151354 -1.95338,7.947062 l -0.85724,2.728002 -5.92285,0.0044 c -3.99126,0.003 -7.56264,0.141085 -10.95094,0.423522 -5.95558,0.496437 -6.2569,0.504264 -6.58999,0.171169 z"
       id="path3078" />
    <path
       style="fill:#624900;fill-opacity:1;stroke:#624900;stroke-width:0.214298;stroke-opacity:1"
       d="m 290.8799,91.141444 c -0.52956,-0.09147 -2.07007,-0.282032 -3.42338,-0.423465 -1.3533,-0.141432 -3.25861,-0.439668 -4.23401,-0.662748 -1.2643,-0.289149 -2.58502,-0.404974 -4.60016,-0.403432 -2.76554,0.0021 -9.84236,-0.361478 -10.79674,-0.554724 -0.46193,-0.09353 -0.48142,-0.187046 -0.48142,-2.310234 v -2.212756 l 3.00996,-0.282384 c 2.96496,-0.278164 3.0146,-0.291374 3.32088,-0.883652 0.56822,-1.098818 0.11263,-39.502958 -0.53386,-45.00206 -0.12451,-1.059107 -0.23116,-4.043862 -0.23699,-6.632789 -0.009,-3.795374 -0.0715,-4.787589 -0.32475,-5.122467 -0.17277,-0.228429 -0.31413,-0.577699 -0.31413,-0.776155 0,-0.70531 -0.6868,-0.946501 -3.61369,-1.26907 l -2.91212,-0.320941 -0.0607,-2.30008 -0.0607,-2.300081 h 12.74515 12.74516 l -0.0607,2.28505 -0.0607,2.285051 -1.71169,0.393531 c -0.94143,0.216442 -2.12735,0.453092 -2.63538,0.525887 -0.63318,0.09073 -1.0251,0.287118 -1.24611,0.624422 -0.84571,1.290717 -1.17524,4.660832 -0.68883,7.044657 0.12006,0.588393 0.30276,5.113667 0.406,10.056164 0.2904,13.903011 0.60175,23.368686 0.83045,25.247391 0.1146,0.941429 0.21524,2.915218 0.22364,4.3862 0.008,1.470981 0.15764,3.541053 0.33166,4.60016 0.17402,1.059107 0.31676,2.967407 0.3172,4.240667 8.6e-4,2.202874 0.0308,2.358624 0.62011,3.215123 0.60544,0.879985 0.67359,0.913316 3.04894,1.491331 1.33631,0.325176 2.64629,0.63736 2.91107,0.693743 0.42655,0.09083 0.48141,0.233089 0.48141,1.248321 0,0.630194 0.14442,1.555147 0.32094,2.055452 0.17652,0.500305 0.32094,0.993823 0.32094,1.096706 0,0.22271 -2.27698,0.202167 -3.63733,-0.03282 z"
       id="path3117" />
    <path
       style="fill:#624900;fill-opacity:1;stroke:#624900;stroke-width:0.214298;stroke-opacity:1"
       d="m 353.14253,104.90124 c -0.52955,-0.3176 -2.05903,-1.15916 -3.39884,-1.87014 l -2.43603,-1.29267 -2.92577,-5.135066 c -1.60918,-2.824284 -4.3719,-7.44584 -6.1394,-10.270125 -1.76749,-2.824284 -4.6898,-7.686546 -6.49401,-10.805027 -1.80421,-3.118481 -4.96654,-8.365873 -7.02739,-11.660871 -2.06085,-3.294999 -5.33411,-8.734956 -7.2739,-12.088794 -1.93979,-3.353837 -4.22325,-7.018002 -5.07436,-8.142587 -0.85111,-1.124587 -1.90983,-2.761388 -2.35271,-3.637337 -0.44288,-0.875949 -0.84367,-1.48115 -0.89065,-1.344891 -0.0902,0.261696 0.90897,19.604633 1.12493,21.777071 0.0695,0.69883 0.21394,4.116856 0.32103,7.595613 0.1071,3.478755 0.34495,7.432259 0.52856,8.785561 0.18361,1.353303 0.39082,4.092669 0.46047,6.08748 0.12266,3.513551 0.1458,3.65809 0.74002,4.623825 0.33737,0.548292 0.61339,1.102074 0.61339,1.230624 0,0.267922 0.72063,0.487918 3.79781,1.159424 l 2.1931,0.478579 v 2.486475 2.486476 l -1.64507,-0.28607 c -0.90479,-0.15734 -2.22868,-0.475119 -2.94197,-0.706178 -0.71328,-0.231059 -2.20045,-0.525255 -3.3048,-0.653766 -1.10435,-0.128514 -2.1812,-0.3264 -2.39299,-0.43975 -0.2118,-0.113348 -0.8969,-0.205574 -1.52244,-0.204945 -1.66391,0.0017 -7.31645,-0.864494 -7.49578,-1.148612 -0.28133,-0.445728 -0.59532,-2.282266 -0.59532,-3.482029 v -1.185061 l 0.90934,0.179278 c 1.7374,0.342532 4.04814,0.218343 4.86761,-0.261608 l 0.74886,-0.438596 0.0595,-4.588341 c 0.0386,-2.971729 -0.0557,-5.751341 -0.26745,-7.889219 -0.22332,-2.254383 -0.32699,-5.643851 -0.32699,-10.691149 0,-8.42931 -0.22859,-13.304673 -0.97414,-20.776626 -0.336,-3.367455 -0.52314,-6.588003 -0.52332,-9.005845 -1.9e-4,-2.719936 -0.0886,-4.0551 -0.31889,-4.814121 -0.17525,-0.577676 -0.31967,-1.273379 -0.32094,-1.546007 -10e-4,-0.272629 -0.2501,-0.820539 -0.55293,-1.217579 -0.50547,-0.6627 -0.75547,-0.768523 -3.04895,-1.290608 -1.37408,-0.312794 -2.61868,-0.604333 -2.76578,-0.647864 -0.16514,-0.04887 -0.26842,-0.470498 -0.26999,-1.102177 -10e-4,-0.562666 -0.14468,-1.552583 -0.3184,-2.199815 -0.17372,-0.647232 -0.31701,-1.201986 -0.3184,-1.232788 -10e-4,-0.0308 3.72279,-0.0308 8.27596,0 l 8.2785,0.056 2.48177,4.191865 c 1.36497,2.305526 3.83341,6.253105 5.48542,8.772399 1.65201,2.519293 4.14295,6.506182 5.53542,8.859752 1.39247,2.35357 3.83508,6.349291 5.42804,8.879379 1.59295,2.530088 3.96804,6.429526 5.27798,8.665418 1.30994,2.235892 3.13715,5.268788 4.06047,6.73977 0.92332,1.470981 2.60739,4.263171 3.74237,6.204867 2.76979,4.738454 3.93171,6.618745 4.09477,6.626406 0.0747,0.0035 0.0972,-0.595382 0.05,-1.330873 -0.0472,-0.735491 -0.17836,-3.214763 -0.29143,-5.509494 -0.11307,-2.294731 -0.54455,-7.734688 -0.95884,-12.088793 -0.48623,-5.11029 -0.75379,-9.092153 -0.75477,-11.23295 -0.002,-3.072875 -1.07864,-15.115038 -1.39839,-15.632414 -0.0657,-0.106376 -0.20703,-1.085663 -0.31395,-2.176192 -0.22373,-2.281757 -0.62661,-3.879081 -1.09705,-4.349517 -0.42088,-0.420879 -2.10303,-0.862437 -4.01825,-1.054775 -1.50529,-0.15117 -1.50835,-0.152805 -1.74867,-0.932493 -0.1324,-0.429582 -0.2904,-1.67644 -0.3511,-2.770795 l -0.11037,-1.989737 0.5074,0.111434 c 2.57989,0.566592 10.60393,0.703879 15.43117,0.26402 l 2.94196,-0.268073 0.005,1.508125 c 0.005,1.33251 0.0889,1.948657 0.53547,3.915185 0.10485,0.461685 0.0514,0.481412 -1.30386,0.481412 -1.65757,0 -4.15796,0.605904 -4.15796,1.007568 0,0.151909 -0.14442,0.276197 -0.32094,0.276197 -0.17652,0 -0.32094,0.174163 -0.32094,0.387028 0,0.212865 -0.14136,0.573924 -0.31414,0.802354 -0.42771,0.565486 -0.43512,5.058528 -0.012,7.270051 0.45731,2.390115 1.94423,24.381165 2.57459,38.077072 0.36031,7.828724 0.71913,13.318987 1.07192,16.401751 0.29167,2.548645 0.67904,6.963971 0.86082,9.811838 0.3157,4.945861 0.31331,5.190991 -0.0532,5.468951 -0.50164,0.38047 -0.44883,0.38984 -1.56048,-0.27688 z"
       id="path3156" />
    <path
       style="fill:#624900;fill-opacity:1;stroke:#624900;stroke-width:0.214298;stroke-opacity:1"
       d="m 388.50872,114.79172 c -1.55421,-0.74664 -4.05756,-1.74684 -5.56299,-2.22265 -1.50542,-0.47582 -3.94067,-1.35364 -5.41165,-1.95071 -1.47098,-0.59708 -3.68548,-1.31994 -4.9211,-1.60637 -1.23563,-0.28642 -3.16128,-0.7997 -4.27922,-1.14063 l -2.03263,-0.61985 -0.06,-2.71954 c -0.0557,-2.5232 -0.0325,-2.71126 0.32095,-2.60485 1.36273,0.41026 3.5792,0.7914 4.27098,0.73444 l 0.8171,-0.0673 0.0605,-5.242042 c 0.039,-3.372923 -0.0564,-6.657006 -0.26745,-9.210379 -0.18039,-2.182583 -0.32951,-5.793174 -0.33138,-8.023535 -0.002,-2.230359 -0.0943,-5.162448 -0.20543,-6.515751 -0.11113,-1.353303 -0.35409,-5.734153 -0.53992,-9.735222 -0.4876,-10.498775 -2.01725,-28.301989 -2.79171,-32.492209 -0.17097,-0.925008 -0.31085,-2.0184 -0.31085,-2.429761 0,-1.007261 -1.09304,-2.414214 -1.87556,-2.414214 -0.49179,0 -3.88612,-0.815904 -4.08596,-0.982152 -0.22833,-0.189946 -0.65724,-2.96854 -0.66375,-4.29993 l -0.008,-1.537765 0.69538,0.09181 c 2.93198,0.3871 8.9174,0.523171 23.0129,0.523171 h 16.30242 V 31.88018 43.434071 h -1.68188 -1.68189 l -0.15013,-1.123295 c -0.0826,-0.617812 -0.2315,-2.711955 -0.33096,-4.653651 -0.17553,-3.426774 -0.49614,-5.252128 -1.20832,-6.879382 -0.28134,-0.642846 -0.55252,-0.862049 -1.5285,-1.235535 -1.34721,-0.515549 -6.96854,-1.299364 -9.31872,-1.299364 -1.33729,0 -5.07113,0.359963 -5.21381,0.502641 -0.0271,0.02708 0.09,1.297093 0.26022,2.822244 0.19122,1.713472 0.3107,4.939425 0.31269,8.442967 0.002,4.103144 0.15068,7.50285 0.53681,12.302754 0.29347,3.648034 0.53369,7.129221 0.53381,7.735972 l 2.4e-4,1.103182 1.01631,0.356029 c 1.57845,0.552952 7.02097,1.386037 9.03985,1.383726 2.86197,-0.0033 2.7815,0.144392 2.7815,-5.103711 l -1e-5,-4.298413 1.01632,0.01645 c 0.55897,0.0091 1.40144,0.132279 1.87215,0.273857 l 0.85585,0.257412 0.14021,4.700737 c 0.17772,5.958452 0.55402,12.302386 0.81186,13.687094 0.10956,0.588392 0.21058,2.514041 0.22449,4.279219 0.0139,1.765177 0.14348,4.394719 0.28794,5.843423 0.26002,2.6077 0.2583,2.632787 -0.173,2.51152 -0.23961,-0.06737 -1.06149,-0.280156 -1.8264,-0.472855 -0.76492,-0.192702 -1.43041,-0.383675 -1.47889,-0.424386 -0.20856,-0.175161 -0.65208,-3.972371 -0.65864,-5.639034 -0.004,-1.000268 -0.1493,-2.348222 -0.32303,-2.995453 -0.17372,-0.647232 -0.317,-1.400298 -0.3184,-1.673481 -0.001,-0.273181 -0.14484,-0.638994 -0.31876,-0.812915 -0.17392,-0.173922 -0.39055,-0.434991 -0.48141,-0.580153 -0.0908,-0.145163 -0.79103,-0.566478 -1.55594,-0.936256 -1.22153,-0.59052 -4.96497,-1.463425 -9.68173,-2.257611 -0.5583,-0.09401 -0.58839,-0.05637 -0.58839,0.736023 0,1.74412 1.50339,23.682729 1.73482,25.31578 0.13342,0.941428 0.30314,3.400669 0.37717,5.464984 l 0.1346,3.7533 0.74886,1.24305 c 0.73737,1.22398 0.79565,1.26594 3.79781,2.73518 l 3.04894,1.49214 v 3.08627 c 0,1.69745 -0.0722,3.07917 -0.16047,3.0705 -0.0883,-0.009 -1.4321,-0.62666 -2.98631,-1.3733 z"
       id="path3195" />
    <path
       style="fill:#624900;fill-opacity:1;stroke:#624900;stroke-width:0.214298;stroke-opacity:1"
       d="m 441.29444,138.54726 c -1.11795,-0.1522 -2.85103,-0.58181 -3.8513,-0.95469 -2.50627,-0.93426 -7.14243,-4.02475 -10.59106,-7.06007 -2.57927,-2.27014 -2.94401,-2.69029 -5.01669,-5.7789 -1.22935,-1.83192 -3.25439,-5.16013 -4.50008,-7.39602 -1.85218,-3.32449 -2.58415,-4.92299 -4.01697,-8.7724 -2.68336,-7.20911 -4.16205,-12.687874 -5.18036,-19.193895 -2.00198,-12.790861 -2.34948,-20.892796 -1.3972,-32.576116 0.61317,-7.522957 1.25557,-11.497223 2.57792,-15.948629 1.54514,-5.201401 3.31051,-8.478701 7.28355,-13.521489 3.05261,-3.874535 5.01979,-5.264686 10.14284,-7.167683 4.05665,-1.506872 9.68596,-1.553429 14.3498,-0.118678 3.37538,1.038379 6.7646,3.631209 10.4366,7.984256 1.87961,2.228215 2.80246,4.024309 5.09202,9.910407 1.80304,4.63532 4.16277,14.660275 5.09252,21.634769 0.82494,6.188244 0.97479,9.615691 0.97126,22.215468 -0.005,18.67467 -0.63052,24.54046 -4.08327,38.3053 -1.42356,5.67518 -4.10279,11.41582 -6.689,14.33214 -1.82173,2.05426 -4.56444,3.87749 -6.1274,4.07322 -0.64723,0.0811 -1.46563,0.1839 -1.81867,0.22856 -0.35303,0.0447 -1.55657,-0.0433 -2.67451,-0.19555 z m 0.17983,-9.92961 c 1.51787,-0.47241 3.77362,-2.32846 4.70665,-3.87266 0.8574,-1.41903 1.67148,-3.55549 1.95885,-5.14082 0.13866,-0.76491 0.52843,-2.35357 0.86617,-3.53036 0.58403,-2.03498 1.08653,-5.35788 1.80691,-11.94873 0.38563,-3.52814 0.44978,-19.343194 0.10818,-26.67122 -0.91933,-19.721914 -0.82619,-18.424459 -1.71598,-23.902567 -1.18917,-7.321258 -2.62858,-12.643987 -4.31477,-15.955375 -1.56432,-3.072045 -3.45299,-5.62228 -5.30753,-7.166657 -2.02571,-1.686926 -2.07267,-1.71039 -4.36762,-2.182595 l -2.10199,-0.432501 -1.95375,0.45379 c -1.19301,0.277098 -2.58272,0.792319 -3.5691,1.323214 -1.38017,0.742841 -1.81534,1.128382 -2.98895,2.648049 -3.56956,4.622139 -5.74415,12.732552 -6.52972,24.353451 -0.35225,5.210762 -0.40457,14.199252 -0.10592,18.197401 0.11384,1.523924 0.3557,4.792702 0.53748,7.263951 0.42645,5.797706 1.21053,10.954614 2.27721,14.977265 0.46807,1.765178 1.09118,4.461084 1.38469,5.990904 0.56228,2.93072 1.41708,5.74349 3.08856,10.16315 2.36066,6.24194 5.18427,10.65938 8.30652,12.99524 2.83303,2.11949 3.28988,2.36196 4.85771,2.57822 0.8172,0.11273 1.54946,0.21726 1.62723,0.2323 0.0778,0.015 0.7209,-0.15301 1.42917,-0.37345 z"
       id="path3234" />
    <path
       style="fill:#624900;fill-opacity:1;stroke:#624900;stroke-width:0.214298;stroke-opacity:1"
       d=""
       id="path3273" />
    <path
       style="fill:#624900;fill-opacity:1;stroke:#624900;stroke-width:0.214298;stroke-opacity:1"
       d="m 52.741372,136.84661 c 0,-0.0486 1.516448,-0.87563 3.369885,-1.83782 5.160804,-2.67918 9.48936,-5.1825 9.811629,-5.67435 0.550045,-0.83947 1.354872,-6.8822 1.865915,-14.00949 0.06466,-0.90182 0.0714,-0.88782 0.106417,0.22096 0.02056,0.65108 -0.203326,4.01782 -0.497522,7.48163 -0.294196,3.46382 -0.534902,6.40281 -0.534902,6.53109 0,0.12828 -0.79433,0.65551 -1.765178,1.1716 -0.970848,0.5161 -2.391013,1.3368 -3.155924,1.82378 -1.250733,0.79628 -5.263346,2.77509 -7.987783,3.93917 -1.077993,0.4606 -1.212537,0.49981 -1.212537,0.35343 z"
       id="path3312" />
    <path
       style="fill:#624900;fill-opacity:1;stroke:#624900;stroke-width:0.214298;stroke-opacity:1"
       d=""
       id="path3351" />
    <path
       style="fill:#624900;fill-opacity:1;stroke:#624900;stroke-width:0.214298;stroke-opacity:1"
       d=""
       id="path3390" />
    <path
       style="fill:#624900;fill-opacity:1;stroke:#624900;stroke-width:0.138261;stroke-opacity:1"
       d="m 48.936388,73.473767 c -0.666477,-0.112111 -0.565072,-0.277336 0.231173,-0.376664 0.442284,-0.05517 1.487467,-0.28149 2.32263,-0.502928 1.247044,-0.330646 3.074705,-0.76955 6.557062,-1.574647 0.926478,-0.214196 -0.814604,0.523735 -2.294273,0.972391 -3.602266,1.092258 -6.014818,1.616719 -6.816592,1.481848 z"
       id="path3540" />
    <path
       style="fill:#624900;fill-opacity:1;stroke:#624900;stroke-width:0.138261;stroke-opacity:1"
       d="m 35.707489,62.982305 c -0.02129,-24.657482 0.03125,-29.133171 0.306272,-26.090204 0.191371,2.117432 0.249279,26.309312 0.0855,35.718731 -0.321685,18.481524 -0.368499,17.331001 -0.391772,-9.628527 z"
       id="path3579" />
    <path
       style="fill:#624900;fill-opacity:1;stroke:#624900;stroke-width:0.138261;stroke-opacity:1"
       d=""
       id="path3618" />
    <path
       style="fill:#624900;fill-opacity:1;stroke:#624900;stroke-width:0.138261;stroke-opacity:1"
       d="m 47.079704,129.2289 c 0.07213,-0.0648 1.187173,-0.53399 2.477879,-1.04268 2.426788,-0.95645 6.39641,-3.05006 9.367946,-4.94072 0.824709,-0.52473 1.526662,-0.92686 1.559895,-0.89362 0.03323,0.0332 -0.36199,0.36517 -0.878275,0.73764 -2.510056,1.81085 -8.847138,5.32023 -10.7872,5.97379 -0.83779,0.28223 -1.992462,0.3921 -1.740245,0.16559 z"
       id="path3657" />
    <path
       style="fill:#624900;fill-opacity:1;stroke:#624900;stroke-width:0.138261;stroke-opacity:1"
       d="m 35.165132,103.25647 c -0.0061,-3.12095 0.07514,-6.094771 0.235729,-8.627714 0.376819,-5.943677 0.321188,-0.993275 -0.118673,10.560324 -0.105979,2.7837 -0.10789,2.75216 -0.117056,-1.93261 z"
       id="path3696" />
    <path
       style="fill:#624900;fill-opacity:1;stroke:#624900;stroke-width:0.138261;stroke-opacity:1"
       d="m 45.827316,115.88744 c 10e-6,-6.3776 0.01692,-8.96644 0.03757,-5.75297 0.02065,3.21347 0.02065,8.43151 -1.8e-5,11.59564 -0.02067,3.16414 -0.03757,0.53494 -0.03756,-5.84267 z"
       id="path3735" />
    <path
       style="fill:#624900;fill-opacity:1;stroke:#624900;stroke-width:0.138261;stroke-opacity:1"
       d="m 45.531591,125.51597 c -0.138288,-1.28302 -0.09407,-11.03123 0.06936,-15.28831 0.09451,-2.46197 0.120735,-1.20092 0.138513,6.6606 0.01206,5.33365 -0.0038,9.69754 -0.03531,9.69754 -0.03148,0 -0.109134,-0.48142 -0.172555,-1.06983 z"
       id="path3774" />
    <path
       style="fill:#624900;fill-opacity:1;stroke:#624900;stroke-width:0.138261;stroke-opacity:1"
       d=""
       id="path3813" />
    <path
       style="fill:#624900;fill-opacity:1;stroke:#624900;stroke-width:0.138261;stroke-opacity:1"
       d="m 47.141824,83.11524 c 0,-0.206324 0.21933,-0.318132 1.079237,-0.55016 1.318928,-0.355885 1.833967,-0.366961 0.991414,-0.02132 -2.09804,0.860679 -2.070651,0.853119 -2.070651,0.57148 z"
       id="path3889" />
    <path
       style="fill:#624900;fill-opacity:1;stroke:#624900;stroke-width:0.138261;stroke-opacity:1"
       d="m 46.885031,37.184288 c -0.01893,-5.570305 -0.01405,-5.679562 0.256793,-5.750389 0.335987,-0.08786 0.335479,-0.52301 0.0074,6.320973 l -0.244866,5.107606 z"
       id="path4002" />
  </g>
</svg>
